<svg xmlns="http://www.w3.org/2000/svg" width="1080" height="520" viewBox="0 0 1080 520" font-family="Verdana,Arial,sans-serif">
      
      <defs>
        <linearGradient id="sky-general" x1="0" x2="0" y1="0" y2="1">
          <stop offset="0" stop-color="#dff3ff"/>
          <stop offset="1" stop-color="#fff7ed"/>
        </linearGradient>
        <linearGradient id="floor-general" x1="0" x2="1">
          <stop offset="0" stop-color="#f5e9d4"/>
          <stop offset="1" stop-color="#e8d6b7"/>
        </linearGradient>
        <filter id="softShadow" x="-20%" y="-20%" width="140%" height="140%">
          <feDropShadow dx="0" dy="8" stdDeviation="6" flood-color="#1f2937" flood-opacity=".18"/>
        </filter>
      </defs>
    
      <rect width="1080" height="520" fill="#fffdf8"/>
      
      <rect x="24" y="22" width="1032" height="476" rx="26" fill="url(#sky-general)" stroke="#ead8bd" stroke-width="4"/>
      <path d="M44,322 H1036 V478 H44 Z" fill="url(#floor-general)"/>
      <path d="M44,322 H1036" stroke="#d7bea0" stroke-width="4"/>
      <circle cx="945" cy="86" r="38" fill="#ef4444" opacity=".18"/>
    
          <rect x="704" y="90" width="268" height="186" rx="16" fill="#f8fafc" stroke="#94a3b8" stroke-width="4" filter="url(#softShadow)"/>
          <rect x="810" y="126" width="44" height="116" fill="#ef4444"/><rect x="774" y="162" width="116" height="44" fill="#ef4444"/>
          <rect x="706" y="318" width="260" height="48" rx="10" fill="#dbeafe" stroke="#60a5fa"/>
          <text x="836" y="350" text-anchor="middle" font-size="20" font-weight="900" fill="#1d4ed8">CLINIC</text>
        
      <text x="54" y="52" font-size="18" font-weight="800" fill="#92400e">Chapter 1 · Conversation 2</text>
      <text x="1026" y="52" text-anchor="end" font-size="18" font-weight="800" fill="#64748b">Doctor and Health</text>
      <rect x="54" y="64" width="570" height="94" rx="22" fill="#ffffff" stroke="#2563eb" stroke-width="4" filter="url(#softShadow)"/>
      <rect x="70" y="78" width="538" height="66" rx="16" fill="#f8fafc" opacity=".72"/>
      <path d="M190,158 L232,158 L204,322 Z" fill="#ffffff" stroke="#2563eb" stroke-width="4"/>
      <rect x="188" y="154" width="48" height="10" fill="#ffffff"/>
      <text x="78" y="90" font-size="28" font-weight="800" fill="#1f2937">His name is Mohan.</text><text x="78" y="124" font-size="27" font-style="italic" font-weight="800" fill="#2563eb">ivara hesaru moohan</text>
      
      <path d="M258,266 Q574.0,210 865.5,286" fill="none" stroke="#2563eb" stroke-width="5" stroke-dasharray="8 10" stroke-linecap="round"/><circle cx="865.5" cy="286" r="7" fill="#2563eb"/>
      <line x1="74" y1="390" x2="1006" y2="390" stroke="#d8c7ae" stroke-width="4"/>
      
      <ellipse cx="205" cy="394" rx="41.3" ry="10" fill="#00000018"/>
      <rect x="186.1" y="346.3" width="13.7" height="60.9" rx="6" fill="#374151"/>
      <rect x="211.3" y="346.3" width="13.7" height="60.9" rx="6" fill="#374151"/>
      <path d="M161.9,356.8 Q205,281.2 248.1,356.8 Z" fill="#2563eb"/>
      <rect x="197.7" y="288.6" width="14.7" height="21.0" fill="#f2c28b"/>
      <line x1="175.7" y1="310.6" x2="146.5" y2="331.6" stroke="#2563eb" stroke-width="12.6" stroke-linecap="round"/>
      <line x1="234.3" y1="310.6" x2="284.2" y2="312.7" stroke="#2563eb" stroke-width="12.6" stroke-linecap="round"/><circle cx="289.4" cy="312.7" r="6.3" fill="#f2c28b"/>
      <circle cx="205" cy="258.09999999999997" r="33.6" fill="#f2c28b" stroke="#00000020"/>
      <path d="M171.4,254.9 Q181.5,222.8 205,226.2 Q231.9,226.2 238.6,254.9 Q205,249.7 171.4,254.9 Z" fill="#22223a"/>
      <circle cx="194.5" cy="256.0" r="3.4" fill="#1f2937"/>
      <circle cx="215.5" cy="256.0" r="3.4" fill="#1f2937"/>
      <path d="M193.4,271.7 Q205,282.2 216.6,271.7" fill="none" stroke="#7c2d12" stroke-width="2.6" stroke-linecap="round"/>
      <rect x="154.6" y="404" rx="10" width="100.8" height="27.3" fill="#2563eb"/>
      <text x="205" y="422" text-anchor="middle" font-size="15.8" font-weight="800" fill="white">Speaker A</text>
    
      
      <ellipse cx="430" cy="394" rx="37.8" ry="10" fill="#00000018"/>
      <rect x="412.7" y="349.4" width="12.5" height="55.7" rx="6" fill="#374151"/>
      <rect x="435.8" y="349.4" width="12.5" height="55.7" rx="6" fill="#374151"/>
      <path d="M390.6,359.0 Q430,289.8 469.4,359.0 Z" fill="#64748b"/>
      <rect x="423.3" y="296.6" width="13.4" height="19.2" fill="#f2c28b"/>
      <line x1="403.2" y1="316.7" x2="376.5" y2="335.9" stroke="#64748b" stroke-width="11.5" stroke-linecap="round"/>
      <line x1="456.8" y1="316.7" x2="483.5" y2="335.9" stroke="#64748b" stroke-width="11.5" stroke-linecap="round"/>
      <circle cx="430" cy="268.72" r="30.7" fill="#f2c28b" stroke="#00000020"/>
      <path d="M399.3,265.8 Q408.5,236.5 430,239.5 Q454.6,239.5 460.7,265.8 Q430,261.0 399.3,265.8 Z" fill="#22223a"/>
      <circle cx="420.4" cy="266.8" r="3.1" fill="#1f2937"/>
      <circle cx="439.6" cy="266.8" r="3.1" fill="#1f2937"/>
      <path d="M419.4,281.2 Q430,290.8 440.6,281.2" fill="none" stroke="#7c2d12" stroke-width="2.4" stroke-linecap="round"/>
      <rect x="383.9" y="404" rx="10" width="92.2" height="25.0" fill="#64748b"/>
      <text x="430" y="422" text-anchor="middle" font-size="14.4" font-weight="800" fill="white">Listener</text>
    
      <g opacity=".92">
      <ellipse cx="890" cy="394" rx="28.3" ry="10" fill="#00000018"/>
      <rect x="877.0" y="357.5" width="9.4" height="41.8" rx="6" fill="#374151"/>
      <rect x="894.3" y="357.5" width="9.4" height="41.8" rx="6" fill="#374151"/>
      <path d="M860.5,364.7 Q890,312.9 919.5,364.7 Z" fill="#9333ea"/>
      <rect x="885.0" y="317.9" width="10.1" height="14.4" fill="#f2c28b"/>
      <line x1="869.9" y1="333.0" x2="849.9" y2="347.4" stroke="#9333ea" stroke-width="8.6" stroke-linecap="round"/>
      <line x1="910.1" y1="333.0" x2="930.1" y2="347.4" stroke="#9333ea" stroke-width="8.6" stroke-linecap="round"/>
      <circle cx="890" cy="297.03999999999996" r="23.0" fill="#f2c28b" stroke="#00000020"/>
      <path d="M867.0,294.9 Q873.9,272.8 890,275.2 Q908.4,275.2 913.0,294.9 Q890,291.3 867.0,294.9 Z" fill="#22223a"/>
      <circle cx="882.8" cy="295.6" r="2.3" fill="#1f2937"/>
      <circle cx="897.2" cy="295.6" r="2.3" fill="#1f2937"/>
      <path d="M882.1,306.4 Q890,313.6 897.9,306.4" fill="none" stroke="#7c2d12" stroke-width="1.8" stroke-linecap="round"/>
      <rect x="855.4" y="404" rx="10" width="69.1" height="18.7" fill="#9333ea"/>
      <text x="890" y="422" text-anchor="middle" font-size="10.8" font-weight="800" fill="white">That person</text>
    </g>
    </svg>